<svg width="4507" height="4277" viewBox="0 0 4507 4277" fill="none" xmlns="http://www.w3.org/2000/svg">
<g opacity="0.07" clip-path="url(#clip0_0_94)">
<path d="M3977.42 3101.94C3761.49 3461.73 3295.31 3664.72 2841.62 3739.44C2391.48 3807.99 1950.26 3754.43 1491.08 3575.54C1028.35 3402.81 542.79 3106.05 474.326 2733.97C405.862 2361.89 758.046 1908.33 1059.75 1499.53C1365.02 1084.58 1625.97 717.934 2041.57 481.637C2463.34 248.896 3039.76 146.501 3414.46 379.261C3787.87 607.163 3958.26 1165.36 4059.96 1700.32C4161.65 2235.28 4194.66 2747.01 3977.42 3101.94Z" stroke="black"/>
<path d="M3893.31 3061.6C3688.17 3403.4 3245.31 3596.25 2814.3 3667.23C2386.67 3732.36 1967.51 3681.47 1531.29 3511.53C1091.69 3347.43 630.413 3065.51 565.372 2712.03C500.331 2358.56 834.906 1927.68 1121.53 1539.32C1411.53 1145.11 1659.43 796.799 2054.26 572.317C2454.93 351.213 3002.53 253.938 3358.5 475.06C3713.24 691.567 3875.11 1221.86 3971.72 1730.07C4068.33 2238.28 4099.69 2724.42 3893.31 3061.6Z" stroke="black"/>
<path d="M3720.24 2962.83C3536.7 3268.65 3140.45 3441.2 2754.81 3504.71C2372.19 3562.98 1997.16 3517.45 1606.86 3365.39C1213.53 3218.57 800.807 2966.33 742.612 2650.06C684.417 2333.79 983.774 1948.27 1240.23 1600.79C1499.7 1248.07 1721.51 936.428 2074.77 735.575C2433.27 537.745 2923.23 450.71 3241.73 648.556C3559.12 842.273 3703.96 1316.74 3790.4 1771.46C3876.84 2226.18 3904.89 2661.14 3720.24 2962.83Z" stroke="black"/>
<path d="M3547.17 2864.06C3385.22 3133.9 3035.59 3286.15 2695.32 3342.18C2357.72 3393.6 2026.81 3353.43 1682.42 3219.26C1335.37 3089.71 971.202 2867.14 919.853 2588.08C868.505 2309.02 1132.64 1968.86 1358.93 1662.26C1587.87 1351.04 1783.59 1076.06 2095.29 898.834C2411.61 724.278 2843.93 647.482 3124.96 822.051C3405.01 992.978 3532.8 1411.63 3609.08 1812.85C3685.35 2214.07 3710.1 2597.86 3547.17 2864.06Z" stroke="black"/>
<path d="M3374.11 2765.29C3233.75 2999.15 2930.74 3131.1 2635.83 3179.66C2343.24 3224.22 2056.45 3189.41 1757.99 3073.13C1457.21 2960.85 1141.6 2767.96 1097.09 2526.11C1052.59 2284.26 1281.51 1989.44 1477.62 1723.72C1676.04 1454 1845.66 1215.68 2115.8 1062.09C2389.95 910.81 2764.62 844.254 3008.18 995.547C3250.9 1143.68 3361.65 1506.51 3427.75 1854.24C3493.86 2201.96 3515.31 2534.58 3374.11 2765.29Z" stroke="black"/>
<path d="M3201.04 2666.52C3082.27 2864.4 2825.88 2976.05 2576.35 3017.14C2328.77 3054.85 2086.1 3025.39 1833.55 2927C1579.05 2831.99 1311.99 2668.78 1274.34 2464.13C1236.68 2259.49 1430.38 2010.03 1596.32 1785.19C1764.22 1556.97 1907.74 1355.31 2136.32 1225.35C2368.29 1097.34 2685.32 1041.03 2891.41 1169.04C3096.78 1294.39 3190.5 1601.4 3246.43 1895.63C3302.37 2189.86 3320.52 2471.3 3201.04 2666.52Z" stroke="black"/>
<path d="M3027.97 2567.74C2930.8 2729.65 2721.02 2821 2516.86 2854.62C2314.29 2885.47 2115.75 2861.37 1909.12 2780.86C1700.88 2703.14 1482.38 2569.59 1451.57 2402.16C1420.77 2234.72 1579.25 2030.62 1715.02 1846.66C1852.39 1659.93 1969.81 1494.94 2156.84 1388.61C2346.63 1283.87 2606.02 1237.8 2774.64 1342.54C2942.67 1445.1 3019.35 1696.28 3065.11 1937.02C3110.87 2177.75 3125.72 2408.02 3027.97 2567.74Z" stroke="black"/>
<path d="M2854.9 2468.97C2779.32 2594.9 2616.16 2665.95 2457.37 2692.1C2299.82 2716.09 2145.39 2697.34 1984.68 2634.73C1822.72 2574.28 1652.78 2470.41 1628.82 2340.18C1604.85 2209.96 1728.12 2051.21 1833.72 1908.13C1940.56 1762.9 2031.89 1634.57 2177.35 1551.87C2324.97 1470.41 2526.72 1434.57 2657.86 1516.03C2788.56 1595.8 2848.19 1791.17 2883.79 1978.41C2919.38 2165.64 2930.93 2344.75 2854.9 2468.97Z" stroke="black"/>
<path d="M2681.83 2370.2C2627.85 2460.15 2511.3 2510.9 2397.88 2529.57C2285.34 2546.71 2175.04 2533.32 2060.25 2488.6C1944.56 2445.42 1823.17 2371.23 1806.06 2278.21C1788.94 2185.19 1876.99 2071.8 1952.41 1969.6C2028.73 1865.86 2093.97 1774.2 2197.87 1715.12C2303.31 1656.94 2447.41 1631.34 2541.09 1689.53C2634.44 1746.51 2677.04 1886.06 2702.46 2019.8C2727.89 2153.54 2736.14 2281.47 2681.83 2370.2Z" stroke="black"/>
<path d="M3632.11 2907.47C3458.98 3193.88 3085.94 3355.91 2723.05 3415.9C2363 3470.99 2010.24 3428.95 1643.28 3287.25C1273.46 3150.46 885.556 2915.06 831.276 2619.23C776.996 2323.41 1059.2 1962.25 1300.98 1636.75C1545.61 1306.35 1754.74 1014.43 2087.38 825.98C2424.94 640.35 2886.01 558.19 3185.36 742.831C3483.67 923.611 3619.22 1367.33 3699.87 1792.66C3780.52 2217.98 3806.27 2624.92 3632.11 2907.47Z" stroke="black"/>
<path d="M3459.54 2810.57C3308.05 3061.18 2981.65 3202.96 2664.11 3255.45C2349.07 3303.66 2040.41 3266.87 1719.32 3142.89C1395.73 3023.19 1056.31 2817.22 1008.81 2558.37C961.319 2299.52 1208.24 1983.51 1419.8 1698.7C1633.85 1409.6 1816.85 1154.17 2107.91 989.273C2403.27 826.846 2806.71 754.956 3068.64 916.517C3329.66 1074.7 3448.27 1462.96 3518.84 1835.12C3589.4 2207.28 3611.93 2563.34 3459.54 2810.57Z" stroke="black"/>
<path d="M3804.67 3004.36C3609.9 3326.57 3190.24 3508.85 2781.98 3576.35C2376.93 3638.32 1980.07 3591.02 1567.24 3431.62C1151.2 3277.73 714.802 3012.9 653.737 2680.1C592.672 2347.29 910.147 1940.99 1182.15 1574.8C1457.36 1203.1 1692.63 874.694 2066.86 662.687C2446.61 453.854 2965.32 361.423 3302.08 569.145C3637.68 772.523 3790.18 1271.71 3880.91 1750.2C3971.64 2228.69 4000.6 2686.49 3804.67 3004.36Z" stroke="black"/>
<path d="M3286.98 2713.68C3157.13 2928.49 2877.35 3050.01 2605.18 3095C2335.15 3136.32 2070.58 3104.79 1795.36 2998.52C1517.99 2895.93 1227.06 2719.38 1186.35 2497.51C1145.64 2275.63 1357.29 2004.77 1538.63 1760.64C1722.1 1512.84 1878.95 1293.9 2128.43 1152.57C2381.6 1013.34 2727.41 951.722 2951.92 1090.2C3175.65 1225.79 3277.31 1558.58 3337.8 1877.57C3398.29 2196.57 3417.6 2501.77 3286.98 2713.68Z" stroke="black"/>
<path d="M3114.41 2616.79C3006.2 2795.79 2773.06 2897.06 2546.25 2934.56C2321.22 2968.99 2100.75 2942.71 1871.39 2854.15C1640.26 2768.66 1397.82 2621.53 1363.89 2436.64C1329.97 2251.75 1506.34 2026.02 1657.45 1822.59C1810.35 1616.09 1941.06 1433.64 2148.96 1315.86C2359.93 1199.84 2648.1 1148.49 2835.19 1263.89C3021.64 1376.88 3106.36 1654.2 3156.76 1920.03C3207.17 2185.86 3223.26 2440.19 3114.41 2616.79Z" stroke="black"/>
<path d="M2769.28 2423C2704.36 2530.4 2564.47 2591.17 2428.38 2613.66C2293.37 2634.32 2161.08 2618.56 2023.47 2565.42C1884.79 2514.12 1739.33 2425.85 1718.97 2314.91C1698.62 2203.98 1804.44 2068.54 1895.11 1946.48C1986.84 1822.58 2065.27 1713.11 2190.01 1642.44C2316.6 1572.83 2489.5 1542.02 2601.75 1611.26C2713.62 1679.05 2764.45 1845.45 2794.69 2004.95C2824.94 2164.44 2834.59 2317.04 2769.28 2423Z" stroke="black"/>
<path d="M2769.28 2423C2704.36 2530.4 2564.47 2591.17 2428.38 2613.66C2293.37 2634.32 2161.08 2618.56 2023.47 2565.42C1884.79 2514.12 1739.33 2425.85 1718.97 2314.91C1698.62 2203.98 1804.44 2068.54 1895.11 1946.48C1986.84 1822.58 2065.27 1713.11 2190.01 1642.44C2316.6 1572.83 2489.5 1542.02 2601.75 1611.26C2713.62 1679.05 2764.45 1845.45 2794.69 2004.95C2824.94 2164.44 2834.59 2317.04 2769.28 2423Z" stroke="black"/>
<path d="M2596.72 2326.11C2553.43 2397.71 2460.17 2438.22 2369.45 2453.22C2279.44 2466.99 2191.25 2456.48 2099.51 2421.05C2007.05 2386.86 1910.08 2328.01 1896.51 2254.05C1882.94 2180.09 1953.49 2089.8 2013.93 2008.43C2075.09 1925.83 2127.37 1852.85 2210.53 1805.74C2294.92 1759.33 2410.19 1738.79 2485.03 1784.95C2559.61 1830.14 2593.49 1941.07 2613.66 2047.41C2633.82 2153.74 2640.26 2255.47 2596.72 2326.11Z" stroke="black"/>
<path d="M2596.72 2326.11C2553.43 2397.71 2460.17 2438.22 2369.45 2453.22C2279.44 2466.99 2191.25 2456.48 2099.51 2421.05C2007.05 2386.86 1910.08 2328.01 1896.51 2254.05C1882.94 2180.09 1953.49 2089.8 2013.93 2008.43C2075.09 1925.83 2127.37 1852.85 2210.53 1805.74C2294.92 1759.33 2410.19 1738.79 2485.03 1784.95C2559.61 1830.14 2593.49 1941.07 2613.66 2047.41C2633.82 2153.74 2640.26 2255.47 2596.72 2326.11Z" stroke="black"/>
<path d="M2512.86 2286.71C2480.4 2340.41 2410.45 2370.79 2342.41 2382.04C2274.9 2392.37 2208.76 2384.49 2139.95 2357.92C2070.61 2332.27 1997.88 2288.14 1987.7 2232.67C1977.53 2177.2 2030.44 2109.48 2075.77 2048.45C2121.64 1986.5 2160.85 1931.77 2223.22 1896.43C2286.52 1861.63 2372.97 1846.22 2429.09 1880.84C2485.03 1914.74 2510.44 1997.94 2525.56 2077.69C2540.69 2157.43 2545.51 2233.73 2512.86 2286.71Z" stroke="black"/>
<path d="M2512.86 2286.71C2480.4 2340.41 2410.45 2370.79 2342.41 2382.04C2274.9 2392.37 2208.76 2384.49 2139.95 2357.92C2070.61 2332.27 1997.88 2288.14 1987.7 2232.67C1977.53 2177.2 2030.44 2109.48 2075.77 2048.45C2121.64 1986.5 2160.85 1931.77 2223.22 1896.43C2286.52 1861.63 2372.97 1846.22 2429.09 1880.84C2485.03 1914.74 2510.44 1997.94 2525.56 2077.69C2540.69 2157.43 2545.51 2233.73 2512.86 2286.71Z" stroke="black"/>
<path d="M2424.15 2229.21C2402.51 2265.02 2355.88 2285.27 2310.52 2292.77C2265.51 2299.65 2221.42 2294.4 2175.55 2276.69C2129.32 2259.59 2080.83 2230.16 2074.05 2193.18C2067.26 2156.21 2102.54 2111.06 2132.76 2070.37C2163.34 2029.07 2189.48 1992.58 2231.06 1969.03C2273.26 1945.82 2330.89 1935.55 2368.31 1958.63C2405.6 1981.23 2422.54 2036.7 2432.62 2089.86C2442.7 2143.03 2445.92 2193.9 2424.15 2229.21Z" stroke="black"/>
<path d="M2424.15 2229.21C2402.51 2265.02 2355.88 2285.27 2310.52 2292.77C2265.51 2299.65 2221.42 2294.4 2175.55 2276.69C2129.32 2259.59 2080.83 2230.16 2074.05 2193.18C2067.26 2156.21 2102.54 2111.06 2132.76 2070.37C2163.34 2029.07 2189.48 1992.58 2231.06 1969.03C2273.26 1945.82 2330.89 1935.55 2368.31 1958.63C2405.6 1981.23 2422.54 2036.7 2432.62 2089.86C2442.7 2143.03 2445.92 2193.9 2424.15 2229.21Z" stroke="black"/>
<path d="M2340.29 2189.82C2329.47 2207.72 2306.16 2217.85 2283.48 2221.6C2260.97 2225.04 2238.93 2222.41 2215.99 2213.56C2192.88 2205.01 2168.63 2190.29 2165.24 2171.8C2161.85 2153.31 2179.49 2130.74 2194.6 2110.4C2209.89 2089.75 2222.96 2071.5 2243.75 2059.73C2264.84 2048.12 2293.66 2042.99 2312.37 2054.53C2331.01 2065.83 2339.49 2093.56 2344.53 2120.14C2349.57 2146.73 2351.18 2172.16 2340.29 2189.82Z" stroke="black"/>
<path d="M2340.29 2189.82C2329.47 2207.72 2306.16 2217.85 2283.48 2221.6C2260.97 2225.04 2238.93 2222.41 2215.99 2213.56C2192.88 2205.01 2168.63 2190.29 2165.24 2171.8C2161.85 2153.31 2179.49 2130.74 2194.6 2110.4C2209.89 2089.75 2222.96 2071.5 2243.75 2059.73C2264.84 2048.12 2293.66 2042.99 2312.37 2054.53C2331.01 2065.83 2339.49 2093.56 2344.53 2120.14C2349.57 2146.73 2351.18 2172.16 2340.29 2189.82Z" stroke="black"/>
<path d="M2941.85 2519.89C2855.28 2663.1 2668.76 2744.11 2487.31 2774.11C2307.29 2801.66 2130.91 2780.63 1947.43 2709.79C1762.52 2641.39 1568.57 2523.69 1541.43 2375.78C1514.29 2227.86 1655.39 2047.28 1776.28 1884.54C1898.6 1719.34 2003.16 1573.38 2169.48 1479.15C2338.26 1386.34 2568.8 1345.26 2718.47 1437.58C2867.63 1527.97 2935.4 1749.83 2975.73 1962.49C3016.05 2175.15 3028.93 2378.62 2941.85 2519.89Z" stroke="black"/>
<path d="M2941.85 2519.89C2855.28 2663.1 2668.76 2744.11 2487.31 2774.11C2307.29 2801.66 2130.91 2780.63 1947.43 2709.79C1762.52 2641.39 1568.57 2523.69 1541.43 2375.78C1514.29 2227.86 1655.39 2047.28 1776.28 1884.54C1898.6 1719.34 2003.16 1573.38 2169.48 1479.15C2338.26 1386.34 2568.8 1345.26 2718.47 1437.58C2867.63 1527.97 2935.4 1749.83 2975.73 1962.49C3016.05 2175.15 3028.93 2378.62 2941.85 2519.89Z" stroke="black"/>
</g>
<defs>
<clipPath id="clip0_0_94">
<rect width="3422.62" height="3748.11" fill="white" transform="translate(3620.4) rotate(75)"/>
</clipPath>
</defs>
</svg>
