<?xml version="1.0" encoding="utf-8"?><svg xmlns="http://www.w3.org/2000/svg" xmlns:xlink="http://www.w3.org/1999/xlink"><symbol fill="none" viewBox="0 0 30 30" id="+" xmlns="http://www.w3.org/2000/svg"><circle opacity=".1" cx="15" cy="15" r="15" transform="matrix(0 -1 -1 0 30 30)" fill="#5BC3E3"/><path fill="#5BC3E3" d="M9 14h12v2H9z"/><path fill="#5BC3E3" d="M14 21V9h2v12z"/></symbol><symbol viewBox="0 0 15 12" id="arrow" xmlns="http://www.w3.org/2000/svg"><path d="M8 12l5-6m0 1.1L8 1m4 5.6H0"/></symbol><symbol viewBox="0 0 18 18" id="ava" xmlns="http://www.w3.org/2000/svg"><path d="M11.714 8.346a4.612 4.612 0 001.901-3.73A4.62 4.62 0 009 0a4.62 4.62 0 00-4.615 4.615c0 1.532.75 2.891 1.901 3.731-2.863 1.096-4.901 3.872-4.901 7.115 0 1.4 1.138 2.539 2.538 2.539h10.154c1.4 0 2.538-1.139 2.538-2.539 0-3.243-2.038-6.02-4.901-7.115zm-5.945-3.73C5.77 2.833 7.22 1.384 9 1.384s3.23 1.449 3.23 3.23A3.234 3.234 0 019 7.845a3.234 3.234 0 01-3.23-3.23zm8.308 12H3.923A1.155 1.155 0 012.77 15.46 6.238 6.238 0 019 9.231a6.238 6.238 0 016.23 6.23c0 .637-.517 1.154-1.153 1.154z"/></symbol><symbol fill="none" viewBox="0 0 4507 4277" id="back-faq" xmlns="http://www.w3.org/2000/svg"><g opacity=".07" clip-path="url(#da)" stroke="#000"><path d="M3977.42 3101.94c-215.93 359.79-682.11 562.78-1135.8 637.5-450.14 68.55-891.36 14.99-1350.54-163.9-462.73-172.73-948.29-469.49-1016.754-841.57-68.464-372.08 283.72-825.64 585.424-1234.44 305.27-414.95 566.22-781.596 981.82-1017.893 421.77-232.741 998.19-335.136 1372.89-102.376 373.41 227.902 543.8 786.099 645.5 1321.059 101.69 534.96 134.7 1046.69-82.54 1401.62z"/><path d="M3893.31 3061.6c-205.14 341.8-648 534.65-1079.01 605.63-427.63 65.13-846.79 14.24-1283.01-155.7-439.6-164.1-900.877-446.02-965.918-799.5-65.041-353.47 269.534-784.35 556.158-1172.71 290-394.21 537.9-742.521 932.73-967.003 400.67-221.104 948.27-318.379 1304.24-97.257 354.74 216.507 516.61 746.8 613.22 1255.01 96.61 508.21 127.97 994.35-78.41 1331.53z"/><path d="M3720.24 2962.83c-183.54 305.82-579.79 478.37-965.43 541.88-382.62 58.27-757.65 12.74-1147.95-139.32-393.33-146.82-806.053-399.06-864.248-715.33-58.195-316.27 241.162-701.79 497.618-1049.27 259.47-352.72 481.28-664.362 834.54-865.215 358.5-197.83 848.46-284.865 1166.96-87.019 317.39 193.717 462.23 668.184 548.67 1122.904 86.44 454.72 114.49 889.68-70.16 1191.37z"/><path d="M3547.17 2864.06c-161.95 269.84-511.58 422.09-851.85 478.12-337.6 51.42-668.51 11.25-1012.9-122.92-347.05-129.55-711.218-352.12-762.567-631.18-51.348-279.06 212.787-619.22 439.077-925.82 228.94-311.22 424.66-586.2 736.36-763.426 316.32-174.556 748.64-251.352 1029.67-76.783 280.05 170.927 407.84 589.579 484.12 990.799 76.27 401.22 101.02 785.01-61.91 1051.21z"/><path d="M3374.11 2765.29c-140.36 233.86-443.37 365.81-738.28 414.37-292.59 44.56-579.38 9.75-877.84-106.53-300.78-112.28-616.39-305.17-660.9-547.02-44.5-241.85 184.42-536.67 380.53-802.39 198.42-269.72 368.04-508.04 638.18-661.63 274.15-151.28 648.82-217.836 892.38-66.543 242.72 148.133 353.47 510.963 419.57 858.693 66.11 347.72 87.56 680.34-53.64 911.05z"/><path d="M3201.04 2666.52c-118.77 197.88-375.16 309.53-624.69 350.62-247.58 37.71-490.25 8.25-742.8-90.14-254.5-95.01-521.56-258.22-559.21-462.87-37.66-204.64 156.04-454.1 321.98-678.94 167.9-228.22 311.42-429.88 540-559.84 231.97-128.01 549-184.32 755.09-56.31 205.37 125.35 299.09 432.36 355.02 726.59 55.94 294.23 74.09 575.67-45.39 770.89z"/><path d="M3027.97 2567.74c-97.17 161.91-306.95 253.26-511.11 286.88-202.57 30.85-401.11 6.75-607.74-73.76-208.24-77.72-426.74-211.27-457.55-378.7-30.8-167.44 127.68-371.54 263.45-555.5 137.37-186.73 254.79-351.72 441.82-458.05 189.79-104.74 449.18-150.81 617.8-46.07 168.03 102.56 244.71 353.74 290.47 594.48 45.76 240.73 60.61 471-37.14 630.72z"/><path d="M2854.9 2468.97c-75.58 125.93-238.74 196.98-397.53 223.13-157.55 23.99-311.98 5.24-472.69-57.37-161.96-60.45-331.9-164.32-355.86-294.55-23.97-130.22 99.3-288.97 204.9-432.05 106.84-145.23 198.17-273.56 343.63-356.26 147.62-81.46 349.37-117.3 480.51-35.84 130.7 79.77 190.33 275.14 225.93 462.38 35.59 187.23 47.14 366.34-28.89 490.56z"/><path d="M2681.83 2370.2c-53.98 89.95-170.53 140.7-283.95 159.37-112.54 17.14-222.84 3.75-337.63-40.97-115.69-43.18-237.08-117.37-254.19-210.39-17.12-93.02 70.93-206.41 146.35-308.61 76.32-103.74 141.56-195.4 245.46-254.48 105.44-58.18 249.54-83.78 343.22-25.59 93.35 56.98 135.95 196.53 161.37 330.27 25.43 133.74 33.68 261.67-20.63 350.4z"/><path d="M3632.11 2907.47c-173.13 286.41-546.17 448.44-909.06 508.43-360.05 55.09-712.81 13.05-1079.77-128.65-369.82-136.79-757.724-372.19-812.004-668.02-54.28-295.82 227.924-656.98 469.704-982.48 244.63-330.4 453.76-622.32 786.4-810.77 337.56-185.63 798.63-267.79 1097.98-83.149 298.31 180.78 433.86 624.499 514.51 1049.829 80.65 425.32 106.4 832.26-67.76 1114.81z"/><path d="M3459.54 2810.57c-151.49 250.61-477.89 392.39-795.43 444.88-315.04 48.21-623.7 11.42-944.79-112.56-323.59-119.7-663.01-325.67-710.51-584.52-47.491-258.85 199.43-574.86 410.99-859.67 214.05-289.1 397.05-544.53 688.11-709.427 295.36-162.427 698.8-234.317 960.73-72.756 261.02 158.183 379.63 546.443 450.2 918.603 70.56 372.16 93.09 728.22-59.3 975.45z"/><path d="M3804.67 3004.36c-194.77 322.21-614.43 504.49-1022.69 571.99-405.05 61.97-801.91 14.67-1214.74-144.73-416.04-153.89-852.438-418.72-913.503-751.52-61.065-332.81 256.41-739.11 528.413-1105.3 275.21-371.7 510.48-700.106 884.71-912.113 379.75-208.833 898.46-301.264 1235.22-93.542 335.6 203.378 488.1 702.565 578.83 1181.055 90.73 478.49 119.69 936.29-76.24 1254.16z"/><path d="M3286.98 2713.68c-129.85 214.81-409.63 336.33-681.8 381.32-270.03 41.32-534.6 9.79-809.82-96.48-277.37-102.59-568.3-279.14-609.01-501.01-40.71-221.88 170.94-492.74 352.28-736.87 183.47-247.8 340.32-466.74 589.8-608.07 253.17-139.23 598.98-200.848 823.49-62.37 223.73 135.59 325.39 468.38 385.88 787.37 60.49 319 79.8 624.2-50.82 836.11z"/><path d="M3114.41 2616.79c-108.21 179-341.35 280.27-568.16 317.77-225.03 34.43-445.5 8.15-674.86-80.41-231.13-85.49-473.57-232.62-507.5-417.51-33.92-184.89 142.45-410.62 293.56-614.05 152.9-206.5 283.61-388.95 491.51-506.73 210.97-116.02 499.14-167.37 686.23-51.97 186.45 112.99 271.17 390.31 321.57 656.14 50.41 265.83 66.5 520.16-42.35 696.76z"/><path d="M2769.28 2423c-64.92 107.4-204.81 168.17-340.9 190.66-135.01 20.66-267.3 4.9-404.91-48.24-138.68-51.3-284.14-139.57-304.5-250.51-20.35-110.93 85.47-246.37 176.14-368.43 91.73-123.9 170.16-233.37 294.9-304.04 126.59-69.61 299.49-100.42 411.74-31.18 111.87 67.79 162.7 234.19 192.94 393.69 30.25 159.49 39.9 312.09-25.41 418.05z"/><path d="M2769.28 2423c-64.92 107.4-204.81 168.17-340.9 190.66-135.01 20.66-267.3 4.9-404.91-48.24-138.68-51.3-284.14-139.57-304.5-250.51-20.35-110.93 85.47-246.37 176.14-368.43 91.73-123.9 170.16-233.37 294.9-304.04 126.59-69.61 299.49-100.42 411.74-31.18 111.87 67.79 162.7 234.19 192.94 393.69 30.25 159.49 39.9 312.09-25.41 418.05z"/><path d="M2596.72 2326.11c-43.29 71.6-136.55 112.11-227.27 127.11-90.01 13.77-178.2 3.26-269.94-32.17-92.46-34.19-189.43-93.04-203-167-13.57-73.96 56.98-164.25 117.42-245.62 61.16-82.6 113.44-155.58 196.6-202.69 84.39-46.41 199.66-66.95 274.5-20.79 74.58 45.19 108.46 156.12 128.63 262.46 20.16 106.33 26.6 208.06-16.94 278.7z"/><path d="M2596.72 2326.11c-43.29 71.6-136.55 112.11-227.27 127.11-90.01 13.77-178.2 3.26-269.94-32.17-92.46-34.19-189.43-93.04-203-167-13.57-73.96 56.98-164.25 117.42-245.62 61.16-82.6 113.44-155.58 196.6-202.69 84.39-46.41 199.66-66.95 274.5-20.79 74.58 45.19 108.46 156.12 128.63 262.46 20.16 106.33 26.6 208.06-16.94 278.7z"/><path d="M2512.86 2286.71c-32.46 53.7-102.41 84.08-170.45 95.33-67.51 10.33-133.65 2.45-202.46-24.12-69.34-25.65-142.07-69.78-152.25-125.25-10.17-55.47 42.74-123.19 88.07-184.22 45.87-61.95 85.08-116.68 147.45-152.02 63.3-34.8 149.75-50.21 205.87-15.59 55.94 33.9 81.35 117.1 96.47 196.85 15.13 79.74 19.95 156.04-12.7 209.02z"/><path d="M2512.86 2286.71c-32.46 53.7-102.41 84.08-170.45 95.33-67.51 10.33-133.65 2.45-202.46-24.12-69.34-25.65-142.07-69.78-152.25-125.25-10.17-55.47 42.74-123.19 88.07-184.22 45.87-61.95 85.08-116.68 147.45-152.02 63.3-34.8 149.75-50.21 205.87-15.59 55.94 33.9 81.35 117.1 96.47 196.85 15.13 79.74 19.95 156.04-12.7 209.02z"/><path d="M2424.15 2229.21c-21.64 35.81-68.27 56.06-113.63 63.56-45.01 6.88-89.1 1.63-134.97-16.08-46.23-17.1-94.72-46.53-101.5-83.51-6.79-36.97 28.49-82.12 58.71-122.81 30.58-41.3 56.72-77.79 98.3-101.34 42.2-23.21 99.83-33.48 137.25-10.4 37.29 22.6 54.23 78.07 64.31 131.23 10.08 53.17 13.3 104.04-8.47 139.35z"/><path d="M2424.15 2229.21c-21.64 35.81-68.27 56.06-113.63 63.56-45.01 6.88-89.1 1.63-134.97-16.08-46.23-17.1-94.72-46.53-101.5-83.51-6.79-36.97 28.49-82.12 58.71-122.81 30.58-41.3 56.72-77.79 98.3-101.34 42.2-23.21 99.83-33.48 137.25-10.4 37.29 22.6 54.23 78.07 64.31 131.23 10.08 53.17 13.3 104.04-8.47 139.35z"/><path d="M2340.29 2189.82c-10.82 17.9-34.13 28.03-56.81 31.78-22.51 3.44-44.55.81-67.49-8.04-23.11-8.55-47.36-23.27-50.75-41.76-3.39-18.49 14.25-41.06 29.36-61.4 15.29-20.65 28.36-38.9 49.15-50.67 21.09-11.61 49.91-16.74 68.62-5.2 18.64 11.3 27.12 39.03 32.16 65.61 5.04 26.59 6.65 52.02-4.24 69.68z"/><path d="M2340.29 2189.82c-10.82 17.9-34.13 28.03-56.81 31.78-22.51 3.44-44.55.81-67.49-8.04-23.11-8.55-47.36-23.27-50.75-41.76-3.39-18.49 14.25-41.06 29.36-61.4 15.29-20.65 28.36-38.9 49.15-50.67 21.09-11.61 49.91-16.74 68.62-5.2 18.64 11.3 27.12 39.03 32.16 65.61 5.04 26.59 6.65 52.02-4.24 69.68z"/><path d="M2941.85 2519.89c-86.57 143.21-273.09 224.22-454.54 254.22-180.02 27.55-356.4 6.52-539.88-64.32-184.91-68.4-378.86-186.1-406-334.01-27.14-147.92 113.96-328.5 234.85-491.24 122.32-165.2 226.88-311.16 393.2-405.39 168.78-92.81 399.32-133.89 548.99-41.57 149.16 90.39 216.93 312.25 257.26 524.91 40.32 212.66 53.2 416.13-33.88 557.4z"/><path d="M2941.85 2519.89c-86.57 143.21-273.09 224.22-454.54 254.22-180.02 27.55-356.4 6.52-539.88-64.32-184.91-68.4-378.86-186.1-406-334.01-27.14-147.92 113.96-328.5 234.85-491.24 122.32-165.2 226.88-311.16 393.2-405.39 168.78-92.81 399.32-133.89 548.99-41.57 149.16 90.39 216.93 312.25 257.26 524.91 40.32 212.66 53.2 416.13-33.88 557.4z"/></g><defs><clipPath id="da"><path fill="#fff" transform="rotate(75 1810.2 2359.099)" d="M0 0h3422.62v3748.11H0z"/></clipPath></defs></symbol><symbol viewBox="0 0 185 40" id="logo" xmlns="http://www.w3.org/2000/svg"><path d="M33.333 33.333A1.667 1.667 0 0131.667 35H8.333a1.667 1.667 0 01-1.666-1.667v-15h-5L18.878 2.687a1.667 1.667 0 012.244 0l17.211 15.646h-5v15zm-13.333-5l5.598-5.598a3.747 3.747 0 000-5.303 3.747 3.747 0 00-5.303 0l-.295.295-.295-.295a3.747 3.747 0 00-5.303 0 3.747 3.747 0 000 5.303L20 28.333zm35 1.285V12.332h3.768l5.95 10.676L70.7 12.332h3.702v17.286h-3.47V17.455l-5.09 9.09H63.56l-5.123-9.09v12.163H55zm31.194.331c-1.367 0-2.59-.232-3.67-.694a8.783 8.783 0 01-2.809-1.983 9.11 9.11 0 01-1.785-2.843 9.426 9.426 0 01-.628-3.437c0-1.212.21-2.358.628-3.438a8.634 8.634 0 011.785-2.842 8.366 8.366 0 012.81-1.95c1.101-.485 2.325-.728 3.669-.728 1.344 0 2.556.243 3.635.727a7.951 7.951 0 012.81 1.95 8.373 8.373 0 011.818 2.843 9.425 9.425 0 01.628 3.438 9.44 9.44 0 01-.628 3.437 8.82 8.82 0 01-1.818 2.843 8.325 8.325 0 01-2.81 1.983c-1.08.463-2.291.694-3.635.694zm-5.157-8.924c0 1.101.232 2.093.694 2.974.463.882 1.08 1.576 1.852 2.083.77.506 1.641.76 2.61.76.948 0 1.808-.253 2.579-.76a5.645 5.645 0 001.884-2.116c.462-.903.694-1.895.694-2.974 0-1.102-.231-2.094-.694-2.975-.463-.882-1.09-1.576-1.884-2.082a4.456 4.456 0 00-2.578-.794c-.97 0-1.84.265-2.612.793a5.774 5.774 0 00-1.85 2.116c-.463.86-.695 1.85-.695 2.975zm16.943 8.593V12.365h3.635V24.76l8.759-12.428h3.305v17.286h-3.636v-12.13l-8.659 12.13h-3.405zm7.866-19.071c-1.631 0-2.898-.408-3.801-1.223-.882-.815-1.323-1.84-1.323-3.074h2.38c0 .639.21 1.168.628 1.587.441.418 1.146.628 2.116.628.947 0 1.619-.199 2.016-.595.419-.397.672-.937.76-1.62h2.38c0 1.234-.452 2.259-1.355 3.074-.882.815-2.149 1.223-3.801 1.223zm18.031 23.203v-7.338h.396c.463 0 .893-.132 1.289-.396.397-.265.749-.716 1.058-1.355.308-.662.562-1.565.76-2.71.198-1.169.32-2.634.364-4.397l.198-5.222h12.329v14.08h2.38v7.338h-3.207v-4.132H127.05v4.132h-3.173zm5.189-7.338h7.569v-10.94h-5.487l-.099 2.413c-.066 1.674-.187 3.084-.364 4.23-.154 1.146-.374 2.06-.661 2.744-.264.683-.584 1.2-.958 1.553zm24.106 3.537c-1.366 0-2.589-.232-3.669-.694a8.785 8.785 0 01-2.809-1.983 9.12 9.12 0 01-1.785-2.843 9.417 9.417 0 01-.628-3.437 9.42 9.42 0 01.628-3.438 8.642 8.642 0 011.785-2.842 8.368 8.368 0 012.809-1.95c1.102-.485 2.325-.728 3.669-.728 1.344 0 2.556.243 3.636.727a7.957 7.957 0 012.81 1.95 8.363 8.363 0 011.817 2.843 9.417 9.417 0 01.628 3.438 9.417 9.417 0 01-.628 3.437 8.81 8.81 0 01-1.817 2.843 8.33 8.33 0 01-2.81 1.983c-1.08.463-2.292.694-3.636.694zm-5.156-8.924c0 1.101.231 2.093.694 2.974.463.882 1.08 1.576 1.851 2.083.771.506 1.642.76 2.611.76a4.59 4.59 0 002.578-.76 5.633 5.633 0 001.884-2.116c.463-.903.694-1.895.694-2.974 0-1.102-.231-2.094-.694-2.975-.462-.882-1.09-1.576-1.884-2.082a4.454 4.454 0 00-2.578-.794 4.51 4.51 0 00-2.611.793c-.771.53-1.388 1.235-1.851 2.116-.463.86-.694 1.85-.694 2.975zm16.942 8.593V12.332h3.768l5.949 10.676 5.983-10.676h3.702v17.286h-3.471V17.455l-5.09 9.09h-2.281l-5.123-9.09v12.163h-3.437z"/></symbol><symbol viewBox="0 0 19 16" id="tg" xmlns="http://www.w3.org/2000/svg"><path d="M1.182 7.827l4.023 1.5 1.569 5.047c.068.34.477.409.75.204l2.25-1.84c.205-.205.546-.205.818 0l4.024 2.931c.272.205.682.069.75-.272l3-14.32c.068-.342-.273-.683-.613-.546L1.181 6.94c-.41.136-.41.75 0 .886zm5.387.75l7.91-4.841c.137-.068.273.136.137.204l-6.479 6.07c-.204.204-.409.477-.409.818l-.204 1.636c0 .205-.341.273-.41 0l-.818-3c-.204-.341-.068-.75.273-.887z"/></symbol><symbol viewBox="0 0 20 12" id="vk" xmlns="http://www.w3.org/2000/svg"><path d="M19.08 9.976c0-.073-.072-.073-.072-.145-.29-.581-.945-1.308-1.816-2.107-.436-.363-.654-.654-.8-.8-.218-.29-.218-.508-.145-.798.073-.218.363-.581.872-1.235.29-.363.436-.581.654-.8 1.09-1.452 1.598-2.397 1.453-2.832l-.073-.073c-.073-.073-.145-.145-.29-.145-.146-.073-.364-.073-.582 0h-3.269l-.072.072c-.073.073-.073.073-.073.146-.29.799-.654 1.452-1.017 2.179-.218.363-.436.726-.654 1.017-.218.29-.363.508-.508.654-.146.145-.291.218-.364.363-.072.073-.218.145-.218.073-.072 0-.145 0-.145-.073l-.218-.218c-.072-.073-.072-.218-.145-.363V1.259c0-.073-.073-.218-.073-.291L11.307.75c-.072-.073-.218-.073-.29-.145A6.515 6.515 0 009.709.459c-1.162 0-1.961.073-2.252.218-.145.073-.29.146-.363.291-.145.145-.145.218-.073.218.363.073.654.218.8.436l.072.145c.073.073.073.218.145.436.073.218.073.436.073.726v1.163c0 .363-.073.58-.073.799 0 .218-.072.363-.145.436-.073.145-.073.218-.145.218 0 0 0 .072-.073.072s-.145.073-.29.073c-.073 0-.218-.073-.291-.145a.875.875 0 01-.363-.364c-.146-.145-.29-.363-.436-.653-.146-.291-.363-.582-.509-1.017l-.145-.291a9.931 9.931 0 01-.363-.8c-.146-.362-.29-.653-.436-1.016a1.003 1.003 0 00-.218-.29h-.073s-.072-.073-.145-.073-.145-.073-.218-.073H1.573c-.29 0-.436.073-.509.145l-.072.073v.145c0 .073 0 .145.072.29.364.873.8 1.744 1.235 2.616.436.8.872 1.526 1.163 2.034.363.509.653 1.017 1.017 1.453.363.436.58.726.653.872l.291.29.218.218c.145.146.363.363.654.581.29.218.654.436 1.017.654.363.218.799.363 1.235.509.508.145.944.218 1.38.145h1.09a.66.66 0 00.508-.218l.073-.073c0-.072.072-.072.072-.145v-.29c0-.291 0-.509.073-.727.073-.218.073-.363.146-.508.072-.146.145-.218.217-.291l.146-.145h.072c.146-.073.364 0 .509.145a2.2 2.2 0 01.581.581c.145.218.363.436.654.727.29.29.508.508.654.58l.218.146c.145.073.29.145.508.218.218.073.363.073.509.073l2.47-.073c.218 0 .435-.073.58-.145.146-.073.219-.146.219-.29v-.291c-.146-.146-.146-.218-.146-.291z"/></symbol><symbol viewBox="0 0 21 21" id="wts" xmlns="http://www.w3.org/2000/svg"><path d="M17.986 2.924A9.897 9.897 0 0010.933 0 9.983 9.983 0 002.29 14.959L.875 20.125l5.287-1.388a9.943 9.943 0 004.766 1.213h.005C16.427 19.95 21 15.476 21 9.977c0-2.664-1.132-5.166-3.014-7.053zM10.933 18.27c-1.491 0-2.951-.4-4.223-1.155l-.3-.18-3.136.823.835-3.06-.197-.314a8.262 8.262 0 01-1.267-4.411c0-4.569 3.72-8.288 8.293-8.288 2.214 0 4.294.862 5.857 2.43 1.564 1.568 2.525 3.647 2.52 5.862 0 4.573-3.813 8.293-8.382 8.293zm4.546-6.208c-.247-.126-1.473-.728-1.702-.81-.23-.084-.396-.125-.562.127-.166.251-.642.808-.79.979-.144.166-.293.189-.54.063-1.464-.732-2.425-1.307-3.391-2.965-.256-.44.256-.409.732-1.361.08-.166.04-.31-.022-.436-.063-.126-.562-1.352-.769-1.85-.202-.486-.408-.418-.561-.427-.144-.01-.31-.01-.476-.01a.923.923 0 00-.665.31c-.23.252-.872.854-.872 2.08 0 1.227.894 2.413 1.016 2.579.125.166 1.756 2.682 4.258 3.764 1.581.683 2.201.742 2.992.625.48-.072 1.473-.602 1.68-1.186.207-.584.207-1.083.144-1.186-.059-.112-.225-.175-.472-.296z"/></symbol></svg>